<svg width="73" height="114" viewBox="0 0 73 114" fill="none" xmlns="http://www.w3.org/2000/svg">
<path d="M61.4111 0C64.2864 0 67.0439 1.1422 69.077 3.17534C71.1101 5.20847 72.2523 7.96599 72.2523 10.8413V90.2869C72.2493 93.1602 71.1058 95.9148 69.073 97.9455C67.0402 99.9762 64.2844 101.117 61.4111 101.117H10.8413C7.96797 101.117 5.21217 99.9762 3.17936 97.9455C1.14656 95.9148 0.00302136 93.1602 0 90.2869V36.1262H25.2849C28.1562 36.1262 30.9103 34.9871 32.9428 32.9589C34.9753 30.9307 36.1201 28.179 36.1262 25.3077V0H61.4111ZM1.81258 28.8987H25.2849C26.2385 28.8957 27.1525 28.5171 27.8289 27.845C28.5053 27.1728 28.8897 26.2612 28.8987 25.3077V1.80118L1.81258 28.8987Z" fill="#055B8B"/>
<path d="M57.1923 45.7598H16.2554C15.702 45.7598 15.1541 45.869 14.643 46.0811C14.1319 46.2932 13.6676 46.6041 13.2769 46.9959C12.8861 47.3877 12.5765 47.8528 12.3658 48.3645C12.155 48.8761 12.0473 49.4244 12.0488 49.9777C12.0488 51.0934 12.492 52.1633 13.2809 52.9522C14.0698 53.7411 15.1397 54.1843 16.2554 54.1843H57.1923C57.7457 54.1858 58.2939 54.0781 58.8056 53.8674C59.3173 53.6566 59.7823 53.347 60.1741 52.9562C60.566 52.5655 60.8769 52.1012 61.089 51.5901C61.3011 51.079 61.4102 50.5311 61.4102 49.9777C61.4117 49.4234 61.3037 48.8742 61.0922 48.3618C60.8808 47.8494 60.5702 47.3838 60.1782 46.9918C59.7862 46.5999 59.3206 46.2892 58.8082 46.0778C58.2958 45.8663 57.7466 45.7583 57.1923 45.7598Z" fill="#A9DEF2"/>
<path d="M57.1923 62.6201H16.2554C15.1397 62.6201 14.0698 63.0633 13.2809 63.8522C12.492 64.6411 12.0488 65.711 12.0488 66.8267C12.0473 67.38 12.155 67.9283 12.3658 68.44C12.5765 68.9516 12.8861 69.4167 13.2769 69.8085C13.6676 70.2004 14.1319 70.5112 14.643 70.7233C15.1541 70.9355 15.702 71.0446 16.2554 71.0446H57.1923C57.7466 71.0461 58.2958 70.9381 58.8082 70.7266C59.3206 70.5152 59.7862 70.2045 60.1782 69.8126C60.5702 69.4206 60.8808 68.955 61.0922 68.4426C61.3037 67.9302 61.4117 67.381 61.4102 66.8267C61.4102 66.2733 61.3011 65.7254 61.089 65.2143C60.8769 64.7032 60.566 64.2389 60.1741 63.8482C59.7823 63.4574 59.3173 63.1478 58.8056 62.9371C58.2939 62.7263 57.7457 62.6186 57.1923 62.6201Z" fill="#A9DEF2"/>
<path d="M49.8622 73.7683C50.4071 73.8874 50.9222 74.1154 51.3767 74.4387C51.8312 74.7619 52.2157 75.1737 52.507 75.6492C52.6133 75.8295 52.7084 76.016 52.792 76.2078C52.9804 76.6416 53.284 77.0154 53.6698 77.2887C54.0557 77.5621 54.5091 77.7244 54.9808 77.7582C55.9603 77.8135 56.8846 78.2298 57.5752 78.9267C58.2657 79.6235 58.6736 80.5516 58.7199 81.5316C58.7317 81.8728 58.6971 82.2141 58.6173 82.5461C58.4815 83.0357 58.4935 83.5544 58.6517 84.0372C58.8099 84.5199 59.1073 84.9451 59.5065 85.2593C59.9268 85.6242 60.2639 86.0751 60.4949 86.5816C60.7259 87.088 60.8454 87.6382 60.8454 88.1948C60.8454 88.7514 60.7259 89.3016 60.4949 89.808C60.2639 90.3144 59.9268 90.7653 59.5065 91.1303C58.9851 91.5581 58.6302 92.155 58.5033 92.8174C58.4617 93.1998 58.4927 93.5865 58.5945 93.9574C58.6963 94.4724 58.6936 95.0025 58.5866 95.5164C58.4797 96.0304 58.2706 96.5176 57.9719 96.9492C57.6732 97.3808 57.2908 97.7481 56.8475 98.0292C56.4042 98.3103 55.909 98.4996 55.3912 98.5858C55.129 98.5858 54.8668 98.5858 54.616 98.6884C54.2091 98.7739 53.8285 98.955 53.5054 99.2166C53.1823 99.4782 52.926 99.813 52.7578 100.193C52.5447 100.732 52.2158 101.217 51.7944 101.615C51.373 102.013 50.8693 102.313 50.3191 102.495C49.7688 102.676 49.1854 102.735 48.61 102.666C48.0347 102.597 47.4815 102.403 46.9895 102.097C46.5587 101.846 46.0689 101.713 45.5702 101.713C45.0715 101.713 44.5816 101.846 44.1509 102.097C43.6634 102.392 43.1181 102.577 42.5522 102.642C41.9863 102.706 41.4131 102.648 40.8719 102.47C40.3307 102.293 39.8342 102 39.4164 101.613C38.9985 101.226 38.6692 100.753 38.451 100.227C38.2606 99.7853 37.9528 99.4039 37.5609 99.1245C37.1689 98.8451 36.708 98.6785 36.228 98.6428C35.2759 98.5903 34.3754 98.1937 33.6938 97.5269C33.0123 96.86 32.5962 95.9683 32.523 95.0176C32.5183 94.574 32.5797 94.1321 32.7054 93.7066C32.8147 93.245 32.7902 92.7617 32.6347 92.3135C32.4792 91.8653 32.1993 91.4707 31.8277 91.1758C31.1597 90.6169 30.6982 89.8503 30.5167 88.9985C30.356 88.3168 30.3882 87.6039 30.6097 86.9395C30.8311 86.2751 31.2331 85.6854 31.7706 85.2365C32.3082 84.7903 32.6615 84.1608 32.7624 83.4695C32.7702 83.0129 32.7204 82.5571 32.6142 82.113C32.4918 81.1159 32.7589 80.11 33.36 79.305C33.961 78.5001 34.8496 77.9582 35.8404 77.7924C36.114 77.7924 36.399 77.7924 36.6612 77.667C37.0437 77.5971 37.4039 77.4364 37.7114 77.1984C38.0189 76.9603 38.2647 76.6519 38.4282 76.299C38.6839 75.6581 39.0913 75.0888 39.6156 74.64C40.1398 74.1913 40.7651 73.8765 41.4377 73.7227H42.9311C43.4789 73.8927 44.0095 74.1141 44.5157 74.3839C44.8679 74.5667 45.2589 74.6622 45.6557 74.6622C46.0525 74.6622 46.4435 74.5667 46.7957 74.3839C47.301 74.1122 47.8317 73.8907 48.3803 73.7227L49.8622 73.7683ZM45.6215 78.1914C43.6377 78.1869 41.6972 78.7713 40.0458 79.8707C38.3945 80.97 37.1066 82.5347 36.3454 84.3667C35.5841 86.1986 35.3837 88.2153 35.7697 90.1612C36.1556 92.1071 37.1104 93.8946 38.5132 95.2974C39.9159 96.7002 41.7035 97.655 43.6494 98.0409C45.5953 98.4268 47.612 98.2265 49.4439 97.4652C51.2758 96.704 52.8406 95.4161 53.9399 93.7647C55.0392 92.1134 55.6237 90.1729 55.6192 88.1891C55.6207 86.8758 55.3631 85.575 54.8612 84.3614C54.3593 83.1477 53.6229 82.045 52.6943 81.1163C51.7656 80.1876 50.6629 79.4513 49.4492 78.9494C48.2355 78.4475 46.9348 78.1899 45.6215 78.1914Z" fill="#A9DEF2"/>
<path d="M38.7364 113.999C38.3602 113.999 38.1778 113.771 38.0182 113.486L35.9206 109.667C35.6242 109.12 35.6242 109.132 35.0542 109.337L30.916 110.819C30.7742 110.898 30.6108 110.931 30.4492 110.913C30.2876 110.894 30.1358 110.826 30.0155 110.716C29.9113 110.597 29.8466 110.449 29.8303 110.292C29.8139 110.135 29.8468 109.976 29.9243 109.838C31.239 106.426 32.5386 103.006 33.823 99.5785C33.9256 99.3163 34.0168 99.2252 34.3018 99.3734C34.8547 99.6428 35.455 99.8016 36.0688 99.8408C36.3583 99.8545 36.6378 99.9509 36.8742 100.119C37.1106 100.286 37.2939 100.518 37.4026 100.787C37.7911 101.705 38.4393 102.49 39.2676 103.045C40.0959 103.6 41.0682 103.9 42.0651 103.91C42.2753 103.908 42.485 103.889 42.6921 103.853C42.9429 103.853 43.0227 103.922 42.9315 104.173L42.2817 105.86L39.4432 113.338C39.4017 113.461 39.3482 113.579 39.2836 113.692C39.2275 113.786 39.1473 113.865 39.0513 113.919C38.9552 113.973 38.8466 114.001 38.7364 113.999Z" fill="#A9DEF2"/>
<path d="M48.598 103.852C49.6982 103.969 50.8066 103.726 51.7564 103.158C52.7062 102.591 53.4461 101.73 53.8647 100.706C53.9717 100.456 54.1471 100.24 54.371 100.085C54.5948 99.9297 54.8579 99.8407 55.1301 99.8283C55.7672 99.7814 56.3898 99.6151 56.9654 99.3381C57.2048 99.2127 57.3188 99.2697 57.41 99.5091C58.7096 102.959 60.0168 106.41 61.3316 109.86C61.4064 109.993 61.4348 110.147 61.412 110.298C61.3893 110.449 61.3169 110.587 61.2062 110.692C61.0918 110.792 60.9496 110.854 60.7987 110.871C60.6479 110.887 60.4956 110.857 60.3626 110.784C58.9262 110.271 57.4784 109.758 56.0421 109.222C55.7115 109.096 55.5633 109.222 55.3923 109.473C54.7083 110.772 54.0015 112.049 53.2947 113.337C53.2947 113.428 53.2035 113.52 53.1465 113.611C53.0856 113.735 52.9891 113.838 52.8693 113.907C52.7495 113.976 52.6118 114.008 52.4739 113.998C52.3354 113.986 52.204 113.932 52.0978 113.842C51.9916 113.752 51.916 113.631 51.8811 113.497L50.3421 109.473C49.6695 107.717 49.0084 105.973 48.3358 104.229C48.2446 103.966 48.199 103.773 48.598 103.852Z" fill="#A9DEF2"/>
<path d="M36.7989 88.2125C36.799 86.4694 37.3153 84.7653 38.2829 83.3152C39.2504 81.8652 40.6258 80.7343 42.2354 80.0652C43.845 79.396 45.6168 79.2186 47.3271 79.5554C49.0375 79.8922 50.6097 80.728 51.8455 81.9574C53.0813 83.1869 53.9252 84.7548 54.2708 86.4634C54.6164 88.172 54.4482 89.9446 53.7873 91.5577C53.1265 93.1707 52.0026 94.5519 50.5576 95.5269C49.1126 96.5019 47.4112 97.027 45.668 97.036C44.5038 97.0482 43.3488 96.8285 42.2703 96.39C41.1917 95.9514 40.2112 95.3027 39.3858 94.4815C38.5604 93.6604 37.9066 92.6832 37.4625 91.6069C37.0184 90.5307 36.7928 89.3768 36.7989 88.2125ZM42.0315 92.3507C42.0315 93.0005 42.4419 93.2399 42.9777 92.9777C43.7301 92.6015 44.4825 92.2025 45.2576 91.8377C45.3752 91.7573 45.5143 91.7143 45.6566 91.7143C45.799 91.7143 45.9381 91.7573 46.0556 91.8377C46.7624 92.2367 47.492 92.6015 48.2102 92.9777C48.3301 93.0576 48.4709 93.1002 48.6149 93.1002C48.7589 93.1002 48.8998 93.0576 49.0196 92.9777C49.316 92.7839 49.2704 92.4875 49.2248 92.2025C49.088 91.3817 48.9512 90.5723 48.803 89.7629C48.7685 89.6384 48.7706 89.5067 48.809 89.3834C48.8474 89.2601 48.9205 89.1504 49.0196 89.0675C49.6694 88.4747 50.285 87.8477 50.9006 87.2322C50.9776 87.1746 51.0392 87.0988 51.0797 87.0115C51.1203 86.9243 51.1386 86.8283 51.1329 86.7323C51.1273 86.6363 51.0979 86.5432 51.0474 86.4613C50.9969 86.3794 50.9269 86.3113 50.8436 86.2632C50.6755 86.195 50.4992 86.149 50.3192 86.1264L47.948 85.7958C47.8257 85.7871 47.7083 85.7439 47.6094 85.6713C47.5106 85.5987 47.4343 85.4995 47.3894 85.3854C47.036 84.633 46.6598 83.9034 46.2494 83.1054C46.1126 82.8318 45.9644 82.6038 45.6224 82.6038C45.2805 82.6038 45.1094 82.8204 44.9726 83.094C44.6193 83.8236 44.2431 84.5418 43.9011 85.2828C43.8458 85.4204 43.7517 85.5389 43.6303 85.6239C43.5088 85.7089 43.3653 85.7568 43.2171 85.7616C42.3849 85.8528 41.5641 85.9896 40.7319 86.115C40.6077 86.1162 40.4869 86.155 40.3851 86.2262C40.2834 86.2974 40.2056 86.3977 40.1619 86.514C40.1263 86.6411 40.129 86.776 40.1695 86.9017C40.2101 87.0274 40.2867 87.1383 40.3899 87.2208C40.9941 87.8021 41.5869 88.3607 42.2025 88.9649C42.3174 89.0591 42.4023 89.1848 42.4468 89.3266C42.4914 89.4683 42.4936 89.6199 42.4533 89.7629C42.3051 90.6863 42.1569 91.5641 42.0315 92.3507Z" fill="#A9DEF2"/>
<path d="M45.6444 90.3672C45.4833 90.3627 45.3246 90.4064 45.1884 90.4926C44.7096 90.7548 44.2194 91.0056 43.7292 91.2564C43.6495 91.2564 43.5582 91.3704 43.4785 91.3248C43.3987 91.2792 43.4785 91.131 43.4785 91.0284C43.5696 90.5496 43.6494 90.0594 43.7406 89.5692C43.7931 89.3794 43.7898 89.1786 43.7312 88.9906C43.6726 88.8026 43.5611 88.6354 43.4101 88.5091C43.0339 88.2013 42.7147 87.8365 42.3727 87.4945C42.2929 87.4147 42.1447 87.3463 42.1789 87.2209C42.2131 87.0955 42.3727 87.1183 42.4867 87.0955C42.9883 87.0271 43.4899 86.9245 44.0029 86.8789C44.1778 86.8686 44.3458 86.8068 44.4857 86.7013C44.6257 86.5959 44.7313 86.4514 44.7894 86.2861C45.006 85.8073 45.2568 85.3399 45.4848 84.8725C45.4848 84.7927 45.5532 84.6787 45.6558 84.6787C45.7584 84.6787 45.804 84.7927 45.8496 84.8839C46.1004 85.3855 46.3626 85.8871 46.602 86.4001C46.6573 86.5321 46.7487 86.646 46.8656 86.7286C46.9825 86.8113 47.1203 86.8594 47.2632 86.8675L48.8934 87.0955C48.996 87.0955 49.1214 87.0955 49.1556 87.2209C49.1898 87.3463 49.0872 87.3805 49.0188 87.4489C48.6426 87.8251 48.2664 88.2127 47.8788 88.5889C47.7545 88.6971 47.6615 88.8367 47.6094 88.9931C47.5573 89.1494 47.548 89.3169 47.5824 89.478C47.6736 90.0024 47.7762 90.5268 47.8674 91.0626C47.8674 91.1538 47.8674 91.2564 47.8674 91.3248C47.8674 91.3932 47.6736 91.3248 47.5824 91.3248L46.1232 90.561C45.9932 90.4393 45.8225 90.3702 45.6444 90.3672Z" fill="#A9DEF2"/>
</svg>
