<svg width="115" height="81" viewBox="0 0 115 81" fill="none" xmlns="http://www.w3.org/2000/svg">
<path d="M5.00968 11.0075H27.3579V3.44703C27.3788 2.52946 27.7565 1.65617 28.4109 1.01257C29.0652 0.368971 29.9446 0.00574098 30.8624 0H56.4508C57.3586 0.0204729 58.2235 0.390219 58.8656 1.03228C59.5076 1.67434 59.8774 2.53925 59.8978 3.44703V11.0075H82.292C83.6017 11.0195 84.8544 11.5451 85.7805 12.4712C86.7067 13.3974 87.2323 14.65 87.2443 15.9597V18.2578C81.66 22.1304 75.7332 25.4841 69.538 28.2771C63.568 30.9802 57.3391 33.0706 50.947 34.5162V29.564C50.9562 29.0732 50.8681 28.5854 50.688 28.1288C50.5079 27.6721 50.2392 27.2556 49.8975 26.9032C49.5558 26.5508 49.1477 26.2694 48.6968 26.0753C48.2459 25.8812 47.7611 25.7782 47.2702 25.7723H40.043C39.0363 25.7723 38.0706 26.1714 37.3577 26.8821C36.6448 27.5929 36.2428 28.5573 36.2397 29.564V34.3784C30.0183 32.9531 23.9528 30.9172 18.1314 28.3001C11.7774 25.4278 5.70699 21.9656 0 17.959V15.9597C0.00148757 15.305 0.132507 14.657 0.385504 14.0531C0.638501 13.4492 1.00848 12.9013 1.47413 12.441C1.93978 11.9806 2.4919 11.617 3.09869 11.371C3.70548 11.125 4.35494 11.0014 5.00968 11.0075Z" fill="#055B8B"/>
<path d="M106.146 73.6496L105.882 64.1818L90.3127 68.6629C87.5424 69.2737 84.6723 69.2737 81.902 68.6629L66.9648 64.0669V73.6726C67.4015 78.6708 81.7181 80.222 86.1073 80.4058C89.6348 80.5782 103.549 78.7397 105.376 75.8672C105.798 75.1685 106.053 74.3823 106.123 73.5692L106.146 73.6496Z" fill="#A9DEF2"/>
<path d="M112.454 57.3561V68.9151H112.822C112.882 68.9151 112.941 68.927 112.996 68.9503C113.051 68.9735 113.101 69.0075 113.143 69.0504C113.185 69.0932 113.217 69.144 113.239 69.1997C113.261 69.2554 113.272 69.3149 113.27 69.3747V72.4885C113.264 72.6055 113.215 72.7163 113.133 72.7992C113.05 72.882 112.939 72.931 112.822 72.9366H112.454V74.0282C112.683 74.0733 112.89 74.1964 113.039 74.3765C113.187 74.5567 113.269 74.7827 113.27 75.0163C113.267 75.2805 113.161 75.5331 112.974 75.7199C112.787 75.9067 112.535 76.013 112.27 76.0159H110.466C110.335 76.0159 110.205 75.9901 110.084 75.9399C109.963 75.8896 109.852 75.816 109.76 75.7232C109.667 75.6304 109.593 75.5201 109.543 75.3989C109.493 75.2776 109.467 75.1476 109.467 75.0163C109.468 74.7827 109.549 74.5567 109.698 74.3765C109.847 74.1964 110.053 74.0733 110.283 74.0282V72.9366H109.926C109.806 72.9367 109.691 72.8898 109.605 72.8061C109.52 72.7224 109.47 72.6084 109.467 72.4885V69.3747C109.467 69.2528 109.515 69.1359 109.601 69.0497C109.688 68.9635 109.804 68.9151 109.926 68.9151H110.283V58.011L91.3354 63.9054C87.9404 64.7519 84.3894 64.7519 80.9943 63.9054L60.1168 57.7123L58.244 57.1492C55.9459 56.2185 56.486 53.9205 58.6806 53.4035L82.3502 46.3371C84.7309 45.5784 87.2886 45.5784 89.6693 46.3371L112.868 53.2311C115.384 53.8516 115.89 56.1841 112.948 57.1492L112.454 57.2986V57.3561Z" fill="#A9DEF2"/>
<path d="M46.88 29.9189H40.4341C40.3404 29.9188 40.2502 29.9543 40.1819 30.0184C40.1136 30.0824 40.0723 30.1702 40.0664 30.2637V43.9254C40.0782 44.0207 40.1138 44.1116 40.1698 44.1896C40.2412 44.257 40.3359 44.2941 40.4341 44.293H46.88C46.9766 44.2866 47.0689 44.2505 47.1443 44.1896C47.1806 44.1564 47.2088 44.1153 47.2267 44.0695C47.2446 44.0237 47.2518 43.9744 47.2477 43.9254V30.2866C47.2493 30.2389 47.2412 30.1913 47.224 30.1468C47.2067 30.1022 47.1808 30.0616 47.1475 30.0273C47.1143 29.993 47.0745 29.9657 47.0305 29.9471C46.9865 29.9285 46.9393 29.9189 46.8915 29.9189H46.88Z" fill="#055B8B"/>
<path d="M53.7857 4.73404H33.5401C33.4834 4.73251 33.4268 4.74237 33.3739 4.76305C33.321 4.78373 33.2728 4.8148 33.2321 4.85443C33.1914 4.89406 33.159 4.94144 33.137 4.99379C33.1149 5.04613 33.1035 5.10237 33.1035 5.15918V10.9042H54.2223V5.15918C54.2164 5.04436 54.1666 4.9362 54.0832 4.85707C53.9998 4.77794 53.8892 4.73389 53.7742 4.73404H53.7857Z" fill="#A9DEF2"/>
<path d="M87.2664 25.9482V40.7589H85.9221C84.2339 40.773 82.5558 41.0205 80.9354 41.4942L57.3232 48.5262C55.7436 48.9189 54.3258 49.7945 53.2672 51.031C52.4174 52.0483 51.8789 53.289 51.7161 54.6044C51.5497 56.0467 51.8822 57.5024 52.6583 58.7294C53.3976 59.9233 54.4673 60.8771 55.7376 61.4755C56.0663 61.6676 56.4175 61.8181 56.7832 61.9236L62.0112 63.5552V64.1872V67.5538H5.00888C4.35703 67.5523 3.71187 67.4224 3.11023 67.1715C2.50858 66.9207 1.96222 66.5538 1.50236 66.0918C1.04251 65.6298 0.678151 65.0818 0.430096 64.479C0.18204 63.8762 0.0551433 63.2304 0.056654 62.5786V25.6494C4.77961 28.6498 9.71416 31.3033 14.8214 33.5891C21.6688 36.6383 28.8215 38.9493 36.1585 40.4831H36.2964V44.4587C36.2949 44.9576 36.3918 45.4519 36.5817 45.9133C36.7716 46.3746 37.0506 46.794 37.4029 47.1473C37.7551 47.5006 38.1736 47.7809 38.6344 47.9722C39.0952 48.1635 39.5892 48.2619 40.0881 48.2619H47.166C47.6574 48.271 48.1457 48.1831 48.603 48.0031C49.0603 47.8231 49.4776 47.5546 49.8309 47.213C50.1843 46.8715 50.4667 46.4635 50.662 46.0125C50.8574 45.5616 50.9618 45.0765 50.9692 44.5851C50.9749 44.5431 50.9749 44.5006 50.9692 44.4587V40.5291L51.5897 40.4601C58.9394 38.9322 66.1041 36.621 72.9613 33.5661C77.9025 31.3437 82.6825 28.779 87.2664 25.8907V25.9482Z" fill="#055B8B"/>
</svg>
