<svg width="112" height="114" viewBox="0 0 112 114" fill="none" xmlns="http://www.w3.org/2000/svg">
<path fill-rule="evenodd" clip-rule="evenodd" d="M15.961 0H73.7512C77.9843 0 82.044 1.6816 85.0373 4.67487C88.0305 7.66813 89.7122 11.7279 89.7122 15.961V51.5312C89.7122 55.7643 88.0305 59.8241 85.0373 62.8173C82.044 65.8106 77.9843 67.4922 73.7512 67.4922H43.5051L19.2786 88.3213C18.8735 88.6786 18.3702 88.9058 17.8342 88.9732C17.2982 89.0405 16.7543 88.945 16.2734 88.699C15.7924 88.453 15.3967 88.0679 15.1376 87.5938C14.8786 87.1198 14.7682 86.5788 14.8209 86.0411L16.1092 67.4922H15.961C11.7279 67.4922 7.66813 65.8106 4.67486 62.8173C1.6816 59.8241 0 55.7643 0 51.5312V15.961C0 11.7279 1.6816 7.66813 4.67486 4.67487C7.66813 1.6816 11.7279 0 15.961 0Z" fill="#68A54F"/>
<path fill-rule="evenodd" clip-rule="evenodd" d="M73.7167 5.37842H15.9607C13.1575 5.38744 10.4717 6.50499 8.48959 8.48715C6.50744 10.4693 5.38988 13.1551 5.38087 15.9583V51.5285C5.37783 54.3396 6.49006 57.037 8.47352 59.029C10.457 61.021 13.1497 62.1449 15.9607 62.1539H19.2327C19.9407 62.2037 20.6003 62.5312 21.0679 63.065C21.5355 63.5988 21.7733 64.2958 21.7295 65.0041L20.6578 80.0302L40.6432 62.9292C41.1362 62.4359 41.8041 62.1572 42.5016 62.1539H73.7167C76.5268 62.1419 79.2178 61.0171 81.2006 59.0257C83.1834 57.0344 84.2966 54.3386 84.2966 51.5285V15.9583C84.2875 13.1551 83.17 10.4693 81.1878 8.48715C79.2057 6.50499 76.5199 5.38744 73.7167 5.37842Z" fill="#68A54F"/>
<path fill-rule="evenodd" clip-rule="evenodd" d="M48.7843 41.43H38.2843V40.9968C38.2391 39.5252 38.4434 38.0565 38.8885 36.6531C39.3076 35.5255 39.9384 34.4885 40.7469 33.5977C42.4228 31.8684 44.2129 30.2534 46.1052 28.7638C47.5987 27.5211 48.3853 26.4153 48.3853 25.4234C48.4064 24.9855 48.3351 24.548 48.176 24.1394C48.0169 23.7309 47.7736 23.3604 47.4619 23.0521C46.6922 22.4378 45.7192 22.1365 44.7371 22.2084C44.1362 22.1916 43.5382 22.2995 42.981 22.5251C42.4238 22.7508 41.9193 23.0893 41.4993 23.5195C40.4572 24.813 39.8791 26.4188 39.8576 28.0798L29.1523 26.7231C29.3659 23.134 30.8868 19.7474 33.4276 17.2035C35.8978 14.8018 39.7284 13.6009 44.9195 13.6009C48.3396 13.4398 51.7287 14.3139 54.6443 16.109C56.204 17.0599 57.4883 18.4015 58.3702 20.0012C59.252 21.6009 59.7007 23.4032 59.672 25.2296C59.6729 26.8396 59.2269 28.4183 58.3838 29.7899C56.9388 31.8618 55.145 33.6672 53.0824 35.1254C51.7108 36.0979 50.5188 37.3015 49.5596 38.6824C49.0377 39.5469 48.7838 40.5467 48.83 41.5554L48.7843 41.43Z" fill="white"/>
<path d="M49.1477 44.8301H37.918V52.879H49.1477V44.8301Z" fill="white"/>
<path fill-rule="evenodd" clip-rule="evenodd" d="M99.0608 25.9776C102.624 26.6746 105.834 28.5867 108.144 31.3875C110.454 34.1882 111.721 37.7039 111.727 41.3344V76.8932C111.727 81.0389 110.085 85.0158 107.16 87.9536C104.235 90.8915 100.265 92.551 96.1194 92.5691H95.538L96.9061 111.494C96.9344 111.955 96.8268 112.415 96.5966 112.815C96.3664 113.216 96.0237 113.54 95.6109 113.747C95.1982 113.955 94.7336 114.037 94.2748 113.983C93.816 113.929 93.3831 113.742 93.0298 113.444L68.6323 91.9193H36.6191L52.4433 75.8671H85.8474C89.3632 75.8551 92.7316 74.4531 95.2177 71.967C97.7038 69.4809 99.1058 66.1125 99.1178 62.5967V25.9776H99.0608Z" fill="#AFD693"/>
</svg>
