<svg width="114" height="76" viewBox="0 0 114 76" fill="none" xmlns="http://www.w3.org/2000/svg">
<path d="M40.9941 31.2274C42.5463 31.2273 44.0352 31.8424 45.1348 32.9377C46.2345 34.0331 46.8553 35.5196 46.8613 37.0717V74.5167C46.8599 74.8066 46.7726 75.0896 46.6105 75.3299C46.4912 75.5152 46.3315 75.6711 46.1433 75.7859C45.9551 75.9007 45.7433 75.9713 45.5239 75.9925C45.3045 76.0137 45.0832 75.985 44.8765 75.9084C44.6698 75.8318 44.4831 75.7093 44.3305 75.5503L35.9706 67.1903C35.6989 66.9196 35.3764 66.705 35.0217 66.5589C34.667 66.4129 34.287 66.3382 33.9034 66.3391H5.85957C4.30613 66.3371 2.81689 65.7191 1.71845 64.6207C0.620003 63.5222 0.00201092 62.033 0 60.4796V37.0717C0.00201092 35.5183 0.620003 34.0291 1.71845 32.9306C2.81689 31.8322 4.30613 31.2142 5.85957 31.2122L40.9941 31.2274Z" fill="#68A54F"/>
<path d="M61.5525 1.8118e-06C59.5899 0.00027525 57.7062 0.772868 56.3086 2.15079C55.6225 2.83156 55.0779 3.64137 54.7061 4.53354C54.3344 5.42572 54.1429 6.38263 54.1426 7.34915V54.3777C54.1423 54.7425 54.2506 55.0992 54.4536 55.4023C54.6566 55.7054 54.9451 55.9413 55.2826 56.08C55.622 56.2186 55.9951 56.253 56.3542 56.1788C56.7143 56.1117 57.0456 55.9368 57.3042 55.6772L67.8909 45.1893C68.2355 44.8459 68.6445 44.5739 69.0944 44.3887C69.5443 44.2035 70.0263 44.1088 70.5129 44.1101H106.065C108.028 44.1115 109.913 43.3387 111.309 41.9593C111.997 41.2789 112.542 40.4694 112.915 39.5772C113.288 38.6851 113.481 37.728 113.483 36.761V7.34915C113.481 6.38216 113.288 5.42505 112.915 4.5329C112.542 3.64076 111.997 2.83119 111.309 2.15079C109.913 0.771472 108.028 -0.00136573 106.065 1.8118e-06H61.5525Z" fill="#AFD693"/>
<path d="M10.3814 45.8068C10.9992 45.8068 11.6031 45.99 12.1168 46.3332C12.6304 46.6764 13.0308 47.1642 13.2672 47.735C13.5036 48.3058 13.5655 48.9338 13.445 49.5397C13.3244 50.1456 13.0269 50.7022 12.5901 51.1391C12.1533 51.5759 11.5967 51.8734 10.9908 51.9939C10.3849 52.1144 9.75681 52.0526 9.18605 51.8162C8.61529 51.5797 8.12745 51.1794 7.78423 50.6657C7.44101 50.152 7.25781 49.5481 7.25781 48.9303C7.25781 48.1019 7.5869 47.3074 8.17269 46.7216C8.75847 46.1359 9.55297 45.8068 10.3814 45.8068Z" fill="#AFD693"/>
<path d="M23.9478 45.8066C24.5656 45.8066 25.1695 45.9898 25.6832 46.3331C26.1968 46.6763 26.5972 47.1641 26.8336 47.7349C27.07 48.3056 27.1319 48.9337 27.0114 49.5396C26.8908 50.1455 26.5933 50.7021 26.1565 51.1389C25.7197 51.5758 25.1631 51.8733 24.5572 51.9938C23.9513 52.1143 23.3232 52.0525 22.7525 51.816C22.1817 51.5796 21.6939 51.1793 21.3506 50.6656C21.0074 50.1519 20.8242 49.548 20.8242 48.9302C20.8242 48.1018 21.1533 47.3073 21.7391 46.7215C22.3249 46.1357 23.1194 45.8066 23.9478 45.8066Z" fill="#AFD693"/>
<path d="M37.483 45.8068C38.1007 45.8068 38.7046 45.99 39.2183 46.3332C39.732 46.6764 40.1323 47.1642 40.3688 47.735C40.6052 48.3058 40.667 48.9338 40.5465 49.5397C40.426 50.1456 40.1285 50.7022 39.6917 51.1391C39.2548 51.5759 38.6982 51.8734 38.0923 51.9939C37.4864 52.1144 36.8584 52.0526 36.2876 51.8162C35.7169 51.5797 35.229 51.1794 34.8858 50.6657C34.5426 50.152 34.3594 49.5481 34.3594 48.9303C34.3594 48.1019 34.6885 47.3074 35.2742 46.7216C35.86 46.1359 36.6545 45.8068 37.483 45.8068Z" fill="#AFD693"/>
<path d="M87.2633 30.6436V36.5031C87.2641 36.6301 87.2396 36.756 87.1913 36.8734C87.1431 36.9908 87.0719 37.0975 86.9821 37.1871C86.8973 37.2777 86.7949 37.35 86.6812 37.3997C86.5675 37.4494 86.4449 37.4753 86.3209 37.4759H80.6437C80.5194 37.4767 80.3964 37.4514 80.2825 37.4016C80.1686 37.3519 80.0664 37.2788 79.9825 37.1871C79.8916 37.0978 79.8193 36.9914 79.7697 36.874C79.7201 36.7566 79.6943 36.6306 79.6937 36.5031V30.6436C79.6943 30.5161 79.7201 30.3901 79.7697 30.2727C79.8193 30.1553 79.8916 30.0489 79.9825 29.9596C80.0664 29.8679 80.1686 29.7949 80.2825 29.7451C80.3964 29.6954 80.5194 29.67 80.6437 29.6708H86.3209C86.4449 29.6714 86.5675 29.6974 86.6812 29.747C86.7949 29.7967 86.8973 29.869 86.9821 29.9596C87.0719 30.0493 87.1431 30.1559 87.1913 30.2733C87.2396 30.3908 87.2641 30.5166 87.2633 30.6436ZM94.7416 16.0061C94.7436 17.5315 94.3312 19.0288 93.5484 20.338C93.1831 20.8786 92.7459 21.367 92.2488 21.7896C91.8191 22.1736 91.3646 22.529 90.8884 22.8536L89.4216 23.72C88.7603 24.1059 88.2043 24.6489 87.8028 25.3008C87.4427 25.7772 87.217 26.3415 87.1493 26.9348C87.1349 27.2108 87.0368 27.4759 86.8681 27.6948C86.7952 27.8065 86.6963 27.8989 86.5797 27.9637C86.4632 28.0286 86.3326 28.0641 86.1993 28.0672H80.5221C80.3898 28.0571 80.2631 28.0096 80.1568 27.9302C80.0504 27.8508 79.9689 27.7428 79.9217 27.6188C79.7616 27.3412 79.6753 27.0272 79.6709 26.7068V25.6732C79.6968 24.2635 80.2374 22.9119 81.1909 21.8732C82.1099 20.7516 83.2646 19.8461 84.5729 19.2209C85.3223 18.9118 85.9982 18.4483 86.5565 17.8605C86.9686 17.3326 87.1788 16.6751 87.1493 16.0061C87.1316 15.6365 87.0214 15.2772 86.8289 14.9612C86.6363 14.6452 86.3676 14.3825 86.0473 14.1973C85.304 13.6793 84.4145 13.413 83.5089 13.4373C82.6028 13.4039 81.7084 13.6507 80.9477 14.1441C80.0021 14.9843 79.1533 15.9275 78.4169 16.9561C78.3314 17.0777 78.2175 17.1767 78.085 17.2442C77.9526 17.3118 77.8056 17.3459 77.6569 17.3437C77.4446 17.3351 77.2391 17.2666 77.0641 17.1461L73.1805 14.1061C72.985 13.9581 72.8543 13.7402 72.8157 13.4981C72.7778 13.262 72.8235 13.0201 72.945 12.8141C75.4783 8.48213 79.1389 6.31867 83.9269 6.32374C85.2301 6.33559 86.5193 6.59344 87.7269 7.08373C88.9776 7.57232 90.1423 8.25732 91.1772 9.11292C92.2145 9.96915 93.0676 11.0265 93.6852 12.2213C94.3386 13.3788 94.7011 14.6776 94.7416 16.0061Z" fill="#68A54F"/>
</svg>
