<svg width="116" height="110" viewBox="0 0 116 110" fill="none" xmlns="http://www.w3.org/2000/svg">
<path d="M75.4836 37.0483H68.1777V44.3542H75.4836V37.0483Z" fill="#68A54F"/>
<path d="M62.3273 37.0483H55.0215V44.3542H62.3273V37.0483Z" fill="#68A54F"/>
<path d="M62.3273 50.2662H55.0215V57.572H62.3273V50.2662Z" fill="#68A54F"/>
<path d="M22.8742 63.4725H15.5684V70.7783H22.8742V63.4725Z" fill="#68A54F"/>
<path d="M22.8742 50.2662H15.5684V57.572H22.8742V50.2662Z" fill="#68A54F"/>
<path d="M22.8742 37.0483H15.5684V44.3542H22.8742V37.0483Z" fill="#68A54F"/>
<path d="M36.0285 63.4725H28.7227V70.7783H36.0285V63.4725Z" fill="#68A54F"/>
<path d="M36.0285 50.2662H28.7227V57.572H36.0285V50.2662Z" fill="#68A54F"/>
<path d="M36.0285 37.0483H28.7227V44.3542H36.0285V37.0483Z" fill="#68A54F"/>
<path d="M49.173 63.4727H41.8672V70.7785H49.173V63.4727Z" fill="#68A54F"/>
<path d="M49.173 50.2661H41.8672V57.572H49.173V50.2661Z" fill="#68A54F"/>
<path d="M49.173 37.0483H41.8672V44.3542H49.173V37.0483Z" fill="#68A54F"/>
<path d="M22.8742 37.0483H15.5684V44.3542H22.8742V37.0483Z" fill="#68A54F"/>
<path d="M22.8742 50.2662H15.5684V57.572H22.8742V50.2662Z" fill="#68A54F"/>
<path d="M22.8742 63.4725H15.5684V70.7783H22.8742V63.4725Z" fill="#68A54F"/>
<path d="M36.0285 37.0483H28.7227V44.3542H36.0285V37.0483Z" fill="#68A54F"/>
<path d="M36.0285 50.2662H28.7227V57.572H36.0285V50.2662Z" fill="#68A54F"/>
<path d="M36.0285 63.4725H28.7227V70.7783H36.0285V63.4725Z" fill="#68A54F"/>
<path d="M49.173 37.0483H41.8672V44.3542H49.173V37.0483Z" fill="#68A54F"/>
<path d="M49.173 50.2661H41.8672V57.572H49.173V50.2661Z" fill="#68A54F"/>
<path d="M49.173 63.4727H41.8672V70.7785H49.173V63.4727Z" fill="#68A54F"/>
<path d="M62.3273 37.0483H55.0215V44.3542H62.3273V37.0483Z" fill="#68A54F"/>
<path d="M62.3273 50.2662H55.0215V57.572H62.3273V50.2662Z" fill="#68A54F"/>
<path d="M75.4836 37.0483H68.1777V44.3542H75.4836V37.0483Z" fill="#68A54F"/>
<path d="M20.3271 19.3266C20.8075 19.3251 21.283 19.2291 21.7263 19.0439C22.1696 18.8586 22.5721 18.5879 22.9108 18.2472C23.2494 17.9064 23.5177 17.5023 23.7002 17.0579C23.8827 16.6134 23.9759 16.1374 23.9744 15.657V3.64737C23.9715 2.68093 23.5863 1.75491 22.9029 1.07153C22.2195 0.38815 21.2935 0.00293307 20.3271 0C19.3597 0 18.432 0.384279 17.748 1.06829C17.064 1.75231 16.6797 2.68003 16.6797 3.64737V15.657C16.6782 16.1374 16.7714 16.6134 16.9539 17.0579C17.1364 17.5023 17.4047 17.9064 17.7434 18.2472C18.0821 18.5879 18.4846 18.8586 18.9279 19.0439C19.3712 19.2291 19.8466 19.3251 20.3271 19.3266Z" fill="#68A54F"/>
<path d="M56.9122 79.0402H13.5442C11.8749 79.0402 10.274 78.377 9.0937 77.1967C7.91336 76.0164 7.25025 74.4155 7.25025 72.7462V28.7777H83.7449V51.0177C84.8526 50.8955 85.9664 50.8361 87.0809 50.8398C88.423 50.8408 89.7638 50.9263 91.0952 51.0955V11.3637C91.0952 11.0688 90.978 10.7859 90.7695 10.5774C90.5609 10.3689 90.2781 10.2517 89.9832 10.2517H76.7837V16.1453C76.7837 17.7526 76.1452 19.2941 75.0087 20.4307C73.8721 21.5672 72.3306 22.2057 70.7233 22.2057C69.116 22.2057 67.5745 21.5672 66.438 20.4307C65.3014 19.2941 64.6629 17.7526 64.6629 16.1453V10.2517H26.3656V16.1453C26.3656 17.7526 25.7271 19.2941 24.5905 20.4307C23.454 21.5672 21.9125 22.2057 20.3052 22.2057C18.6978 22.2057 17.1563 21.5672 16.0198 20.4307C14.8832 19.2941 14.2447 17.7526 14.2447 16.1453V10.2517H1.0564C0.77122 10.266 0.502466 10.3894 0.305803 10.5964C0.10914 10.8034 -0.000356262 11.0782 8.70872e-07 11.3637V76.6605C8.70872e-07 78.8812 0.882189 81.011 2.4525 82.5813C4.02281 84.1516 6.15262 85.0338 8.37337 85.0338H57.1124C56.9339 83.6995 56.8447 82.3547 56.8455 81.0084C56.8455 80.356 56.8678 79.6999 56.9122 79.0402Z" fill="#68A54F"/>
<path d="M70.7229 19.3266C71.2034 19.3251 71.6788 19.2291 72.1221 19.0439C72.5654 18.8586 72.9679 18.5879 73.3066 18.2472C73.6453 17.9064 73.9136 17.5023 74.0961 17.0579C74.2786 16.6134 74.3718 16.1374 74.3703 15.657V3.64737C74.3674 2.68093 73.9821 1.75491 73.2988 1.07153C72.6154 0.38815 71.6894 0.00293307 70.7229 0C69.7546 -4.47317e-06 68.8257 0.383918 68.1399 1.06761C67.4541 1.75131 67.0674 2.67901 67.0645 3.64737V15.657C67.0644 16.6283 67.4495 17.56 68.1353 18.2479C68.8211 18.9357 69.7516 19.3237 70.7229 19.3266Z" fill="#68A54F"/>
<path d="M92.4717 103.744C105.035 100.749 112.791 88.136 109.796 75.5727C106.801 63.0094 94.188 55.2531 81.6248 58.2484C69.0615 61.2437 61.3051 73.8564 64.3004 86.4197C67.2958 98.983 79.9085 106.739 92.4717 103.744Z" fill="#AFD693"/>
<path d="M98.5123 91.2715C98.5144 91.7799 98.4003 92.2819 98.1787 92.7394C97.986 93.1424 97.7156 93.5034 97.383 93.8016C97.0504 94.0999 96.6622 94.3294 96.2406 94.4772C95.819 94.6249 95.3724 94.688 94.9264 94.6626C94.4804 94.6373 94.0438 94.5241 93.6417 94.3296L77.6289 86.6123V70.4882C77.6289 69.5858 77.9874 68.7203 78.6255 68.0821C79.2637 67.444 80.1292 67.0855 81.0316 67.0855C81.9341 67.0855 82.7996 67.444 83.4377 68.0821C84.0758 68.7203 84.4344 69.5858 84.4344 70.4882V82.3755L96.5885 88.2358C97.1614 88.5108 97.6455 88.9412 97.9856 89.4779C98.3257 90.0146 98.5082 90.6361 98.5123 91.2715Z" fill="#68A54F"/>
</svg>
