<svg width="92" height="115" viewBox="0 0 92 115" fill="none" xmlns="http://www.w3.org/2000/svg">
<path d="M42.1245 0C43.427 0.341622 44.6593 0.909469 45.7651 1.67764C47.2226 2.83351 48.2576 4.43823 48.7096 6.24265C48.7419 6.54645 48.8349 6.84068 48.983 7.10789C49.1311 7.37509 49.3314 7.60985 49.5719 7.79823C49.8124 7.98661 50.0883 8.12478 50.3832 8.20456C50.6782 8.28434 50.9861 8.3041 51.2888 8.26267C53.5142 8.26267 55.7511 8.26267 57.988 8.26267C58.7069 8.26267 58.901 8.4795 58.8895 9.16426C58.8895 13.2499 58.8895 17.3318 58.8895 21.4099C58.8895 22.0947 58.6955 22.3343 57.988 22.3343C46.4157 22.3343 34.8433 22.3343 23.271 22.3343C22.552 22.3343 22.3809 22.0718 22.3809 21.3985C22.3809 17.3242 22.3809 13.2385 22.3809 9.15284C22.3809 8.44526 22.6091 8.25125 23.2939 8.26267C25.4965 8.26267 27.6991 8.26267 29.9017 8.26267C30.4583 8.32854 31.0187 8.17638 31.4655 7.83808C31.9123 7.49978 32.2108 7.00162 32.2983 6.44807C32.6283 4.89236 33.4094 3.46838 34.5441 2.35405C35.6787 1.23972 37.1165 0.484447 38.6779 0.1826C38.7736 0.140124 38.8591 0.0778943 38.929 0H42.1245Z" fill="#054460"/>
<path d="M81.2914 62.6869C81.2914 75.895 81.2914 89.0993 81.2914 102.3C81.3973 103.821 80.9514 105.33 80.0355 106.55C79.1196 107.77 77.795 108.619 76.3041 108.942C75.8153 109.036 75.3181 109.078 74.8205 109.067H6.45948C5.62252 109.086 4.79029 108.937 4.01108 108.631C3.23186 108.325 2.52117 107.868 1.92026 107.285C1.31934 106.702 0.840168 106.005 0.51053 105.236C0.180893 104.466 0.00735845 103.639 0 102.802V22.9143C0 19.6275 1.7347 17.345 4.71337 16.7173C5.05784 16.6392 5.41012 16.6009 5.76332 16.6031C9.59793 16.6031 13.4325 16.6031 17.2671 16.6031C18.0432 16.6031 18.3171 16.7743 18.2829 17.596C18.2829 19.5818 18.2829 21.5676 18.2829 23.5534C18.2829 25.8359 18.9334 26.4179 21.0903 26.4179H60.2581C62.1982 26.4179 62.9971 25.6305 63.02 23.6561C63.0428 21.6817 63.02 19.8899 63.02 17.9498C63.02 16.3863 62.8373 16.5689 64.3552 16.5689H75.1172C75.9349 16.5179 76.7542 16.6404 77.5212 16.9284C78.2882 17.2164 78.9856 17.6633 79.5676 18.24C80.1496 18.8166 80.6031 19.5098 80.8982 20.2741C81.1933 21.0384 81.3234 21.8565 81.28 22.6746C81.28 25.9842 81.28 29.2825 81.28 32.5807L81.2914 62.6869Z" fill="#A9DEF2"/>
<path d="M11.3321 40.2161C10.9325 40.1868 10.5336 40.2804 10.1888 40.4844C9.84406 40.6884 9.56996 40.993 9.40334 41.3573C9.20408 41.7402 9.13419 42.1773 9.20414 42.6031C9.27409 43.029 9.48012 43.4208 9.79137 43.7197C11.6858 45.6827 13.5803 47.6457 15.4976 49.563C15.6635 49.7659 15.8725 49.9294 16.1093 50.0417C16.3462 50.154 16.605 50.2122 16.8671 50.2122C17.1292 50.2122 17.3881 50.154 17.6249 50.0417C17.8618 49.9294 18.0707 49.7659 18.2366 49.563C21.8506 46.2077 25.4493 42.841 29.0329 39.4629C29.3389 39.2132 29.5625 38.8771 29.6745 38.4984C29.7865 38.1197 29.7816 37.716 29.6606 37.3401C29.5617 36.9876 29.3703 36.6679 29.1064 36.4142C28.8425 36.1604 28.5155 35.9819 28.1594 35.8969C27.8032 35.8119 27.4309 35.8237 27.0808 35.931C26.7308 36.0382 26.4157 36.2371 26.1683 36.507C23.338 39.1319 20.4621 41.7682 17.7345 44.4958C17.0726 45.1349 16.7416 45.0664 16.1824 44.4159C15.1438 43.2062 14.014 42.0763 12.9298 40.9123C12.7329 40.6837 12.487 40.5024 12.2104 40.3819C11.9338 40.2613 11.6336 40.2047 11.3321 40.2161Z" fill="#055B8B"/>
<path d="M16.8335 95.0427C17.1172 95.0418 17.3979 94.9838 17.6587 94.872C17.9195 94.7603 18.1551 94.5971 18.3514 94.3922C21.8664 91.094 25.3929 87.8072 28.908 84.4976C29.1467 84.3219 29.3452 84.0971 29.4899 83.8384C29.6346 83.5796 29.7222 83.2929 29.7469 82.9975C29.7716 82.7021 29.7327 82.4048 29.633 82.1256C29.5333 81.8465 29.3749 81.5919 29.1686 81.379C28.9623 81.1661 28.7128 80.9999 28.4369 80.8914C28.161 80.783 27.8651 80.7348 27.569 80.7502C27.273 80.7657 26.9837 80.8443 26.7205 80.9808C26.4574 81.1173 26.2265 81.3086 26.0434 81.5417C23.3272 84.0867 20.5882 86.6089 17.9291 89.2109C17.1302 89.9984 16.708 89.8957 16.0575 89.1082C15.076 87.967 14.0032 86.8257 12.9418 85.7643C12.7584 85.5424 12.5315 85.3603 12.275 85.2293C12.0186 85.0983 11.7381 85.0211 11.4507 85.0025C11.1633 84.9839 10.8752 85.0243 10.604 85.1212C10.3329 85.2181 10.0844 85.3694 9.87386 85.5659C9.66334 85.7624 9.49523 85.9999 9.37989 86.2637C9.26455 86.5276 9.2044 86.8123 9.20315 87.1002C9.20189 87.3882 9.25956 87.6734 9.3726 87.9382C9.48564 88.2031 9.65167 88.442 9.86047 88.6403C11.6751 90.5348 13.5239 92.4064 15.3613 94.2781C15.7336 94.7151 16.2619 94.9894 16.8335 95.0427Z" fill="#055B8B"/>
<path d="M11.3556 62.5988C10.9533 62.5712 10.5521 62.6653 10.204 62.8688C9.85597 63.0724 9.57722 63.376 9.40406 63.7401C9.20268 64.1038 9.12495 64.523 9.18258 64.9347C9.24022 65.3464 9.4301 65.7282 9.7236 66.0226C11.6637 68.0426 13.6153 70.0626 15.6125 72.0142C15.7699 72.2014 15.9665 72.3519 16.1883 72.4552C16.41 72.5585 16.6517 72.612 16.8964 72.612C17.141 72.612 17.3827 72.5585 17.6045 72.4552C17.8263 72.3519 18.0228 72.2014 18.1803 72.0142C21.8551 68.6285 25.5033 65.2047 29.1249 61.7429C29.3306 61.5567 29.4949 61.3295 29.6074 61.076C29.7199 60.8224 29.778 60.5481 29.778 60.2707C29.778 59.9933 29.7199 59.719 29.6074 59.4654C29.4949 59.2118 29.3306 58.9846 29.1249 58.7985C28.919 58.6026 28.6755 58.4507 28.4091 58.3517C28.1428 58.2527 27.8591 58.2088 27.5753 58.2227C27.2915 58.2366 27.0134 58.3079 26.758 58.4324C26.5025 58.5569 26.275 58.7319 26.0892 58.9468C23.3159 61.5375 20.5313 64.1053 17.8151 66.753C17.0847 67.472 16.6738 67.3579 16.1032 66.6617C15.0875 65.5204 13.9805 64.3792 12.9191 63.2379C12.7215 63.023 12.4789 62.8543 12.2087 62.7439C11.9384 62.6334 11.6472 62.5839 11.3556 62.5988Z" fill="#055B8B"/>
<path d="M67.6654 55.8155C67.0522 55.1855 66.7049 54.3437 66.6954 53.4645V31.9405H41.5878C40.8877 31.9374 40.19 32.0218 39.5107 32.1916H39.4423H39.2711C38.8548 32.3089 38.4469 32.4537 38.0499 32.6253C36.4938 33.3059 35.1679 34.4224 34.2323 35.84C33.2967 37.2575 32.7914 38.9156 32.7773 40.614V40.7282V105.3C32.7804 107.635 33.71 109.873 35.3619 111.523C37.0139 113.173 39.2531 114.099 41.5878 114.099H82.6729C83.3296 114.102 83.9844 114.029 84.6245 113.882C85.1402 113.764 85.6443 113.6 86.1309 113.392C87.1659 112.956 88.1046 112.32 88.8927 111.52C90.2838 110.135 91.1682 108.322 91.4035 106.373C91.449 106.017 91.4719 105.659 91.472 105.3V56.7856H70.0164C69.1373 56.7761 68.2955 56.4287 67.6654 55.8155Z" fill="#055B8B"/>
<path d="M66.6953 53.4645C66.6938 53.901 66.7787 54.3335 66.9451 54.7372C67.1114 55.1408 67.356 55.5075 67.6647 55.8161C67.9734 56.1248 68.3401 56.3694 68.7437 56.5358C69.1473 56.7021 69.5798 56.787 70.0164 56.7855H91.5404L66.6953 31.9404V53.4645Z" fill="#054460"/>
<path d="M45.0683 64.3647H78.3358C79.2438 64.3647 80.1147 64.7255 80.7568 65.3675C81.3988 66.0096 81.7596 66.8805 81.7596 67.7885C81.7596 68.6965 81.3988 69.5674 80.7568 70.2095C80.1147 70.8515 79.2438 71.2123 78.3358 71.2123H45.0683C44.1603 71.2123 43.2894 70.8515 42.6473 70.2095C42.0052 69.5674 41.6445 68.6965 41.6445 67.7885C41.6445 66.8805 42.0052 66.0096 42.6473 65.3675C43.2894 64.7255 44.1603 64.3647 45.0683 64.3647Z" fill="#A9DEF2"/>
<path d="M45.0683 80.4326H78.3358C79.2438 80.4326 80.1147 80.7933 80.7568 81.4354C81.3988 82.0775 81.7596 82.9483 81.7596 83.8564C81.7596 84.7644 81.3988 85.6353 80.7568 86.2773C80.1147 86.9194 79.2438 87.2801 78.3358 87.2801H45.0683C44.1603 87.2801 43.2894 86.9194 42.6473 86.2773C42.0052 85.6353 41.6445 84.7644 41.6445 83.8564C41.6445 82.9483 42.0052 82.0775 42.6473 81.4354C43.2894 80.7933 44.1603 80.4326 45.0683 80.4326Z" fill="#A9DEF2"/>
<path d="M45.0683 96.5161H78.3358C79.2438 96.5161 80.1147 96.8768 80.7568 97.5189C81.3988 98.161 81.7596 99.0318 81.7596 99.9399C81.7596 100.848 81.3988 101.719 80.7568 102.361C80.1147 103.003 79.2438 103.364 78.3358 103.364H45.0683C44.1603 103.364 43.2894 103.003 42.6473 102.361C42.0052 101.719 41.6445 100.848 41.6445 99.9399C41.6445 99.0318 42.0052 98.161 42.6473 97.5189C43.2894 96.8768 44.1603 96.5161 45.0683 96.5161Z" fill="#A9DEF2"/>
</svg>
